<svg id="SvgjsSvg1001" width="288" height="288" xmlns="http://www.w3.org/2000/svg" version="1.1" xmlns:xlink="http://www.w3.org/1999/xlink" xmlns:svgjs="http://svgjs.com/svgjs"><defs id="SvgjsDefs1002"></defs><g id="SvgjsG1008"><svg xmlns="http://www.w3.org/2000/svg" xmlns:xlink="http://www.w3.org/1999/xlink" data-name="Layer 1" viewBox="0 0 439.42 425.46" width="288" height="288"><defs><linearGradient id="b" x1="183" x2="233.44" y1="223.84" y2="416.43" data-name="Градієнт без назви 82" gradientUnits="userSpaceOnUse"><stop offset=".19" stop-color="#028c34" class="stopColor00472d svgShape"></stop><stop offset=".32" stop-color="#006f28" class="stopColor01482e svgShape"></stop><stop offset=".36" stop-color="#0c6930" class="stopColor084d34 svgShape"></stop><stop offset=".4" stop-color="#207a44" class="stopColor14553d svgShape"></stop><stop offset=".42" stop-color="#397a4d" class="stopColor25614b svgShape"></stop><stop offset=".45" stop-color="#3b715d" class="stopColor3b715d svgShape"></stop><stop offset=".47" stop-color="#568574" class="stopColor568574 svgShape"></stop><stop offset=".48" stop-color="#779c8f" class="stopColor779c8f svgShape"></stop><stop offset=".5" stop-color="#9cb8ae" class="stopColor9cb8ae svgShape"></stop><stop offset=".52" stop-color="#c7d7d1" class="stopColorc7d7d1 svgShape"></stop><stop offset=".53" stop-color="#f5f8f7" class="stopColorf5f8f7 svgShape"></stop><stop offset=".53" stop-color="#ffffff" class="stopColorfff svgShape"></stop><stop offset=".54" stop-color="#f5f8f7" class="stopColorf5f8f7 svgShape"></stop><stop offset=".55" stop-color="#c7d7d1" class="stopColorc7d7d1 svgShape"></stop><stop offset=".57" stop-color="#9cb8ae" class="stopColor9cb8ae svgShape"></stop><stop offset=".58" stop-color="#779c8f" class="stopColor779c8f svgShape"></stop><stop offset=".6" stop-color="#568574" class="stopColor568574 svgShape"></stop><stop offset=".63" stop-color="#3b715d" class="stopColor3b715d svgShape"></stop><stop offset=".65" stop-color="#397a4d" class="stopColor25614b svgShape"></stop><stop offset=".68" stop-color="#207a44" class="stopColor14553d svgShape"></stop><stop offset=".71" stop-color="#0c6930" class="stopColor084d34 svgShape"></stop><stop offset=".76" stop-color="#006f28" class="stopColor01482e svgShape"></stop><stop offset=".9" stop-color="#028c34" class="stopColor00472d svgShape"></stop></linearGradient><linearGradient id="c" x1="298.84" x2="262.01" y1="75.4" y2="37.08" data-name="Градієнт без назви 86" gradientTransform="rotate(-5.63 570.37 297.352) scale(.85 .9)" gradientUnits="userSpaceOnUse"><stop offset=".11" stop-color="#028c34" class="stopColor00472d svgShape"></stop><stop offset=".27" stop-color="#006f28" class="stopColor01482e svgShape"></stop><stop offset=".32" stop-color="#0c6930" class="stopColor084d34 svgShape"></stop><stop offset=".36" stop-color="#207a44" class="stopColor14553d svgShape"></stop><stop offset=".4" stop-color="#397a4d" class="stopColor25614b svgShape"></stop><stop offset=".43" stop-color="#3b715d" class="stopColor3b715d svgShape"></stop><stop offset=".45" stop-color="#568574" class="stopColor568574 svgShape"></stop><stop offset=".47" stop-color="#779c8f" class="stopColor779c8f svgShape"></stop><stop offset=".49" stop-color="#9cb8ae" class="stopColor9cb8ae svgShape"></stop><stop offset=".51" stop-color="#c7d7d1" class="stopColorc7d7d1 svgShape"></stop><stop offset=".53" stop-color="#f5f8f7" class="stopColorf5f8f7 svgShape"></stop><stop offset=".53" stop-color="#ffffff" class="stopColorfff svgShape"></stop><stop offset=".54" stop-color="#f5f8f7" class="stopColorf5f8f7 svgShape"></stop><stop offset=".55" stop-color="#c7d7d1" class="stopColorc7d7d1 svgShape"></stop><stop offset=".57" stop-color="#9cb8ae" class="stopColor9cb8ae svgShape"></stop><stop offset=".59" stop-color="#779c8f" class="stopColor779c8f svgShape"></stop><stop offset=".62" stop-color="#568574" class="stopColor568574 svgShape"></stop><stop offset=".64" stop-color="#3b715d" class="stopColor3b715d svgShape"></stop><stop offset=".67" stop-color="#397a4d" class="stopColor25614b svgShape"></stop><stop offset=".7" stop-color="#207a44" class="stopColor14553d svgShape"></stop><stop offset=".74" stop-color="#0c6930" class="stopColor084d34 svgShape"></stop><stop offset=".8" stop-color="#006f28" class="stopColor01482e svgShape"></stop><stop offset=".96" stop-color="#028c34" class="stopColor00472d svgShape"></stop></linearGradient><linearGradient id="d" x1="244.41" x2="343.66" y1="262.08" y2="247.66" data-name="Градієнт без назви 92" gradientTransform="rotate(-8.02 714.776 218.328) scale(.91 .82)" gradientUnits="userSpaceOnUse"><stop offset=".3" stop-color="#028c34" class="stopColor00472d svgShape"></stop><stop offset=".39" stop-color="#006f28" class="stopColor01482e svgShape"></stop><stop offset=".42" stop-color="#0c6930" class="stopColor084d34 svgShape"></stop><stop offset=".44" stop-color="#207a44" class="stopColor14553d svgShape"></stop><stop offset=".46" stop-color="#397a4d" class="stopColor25614b svgShape"></stop><stop offset=".48" stop-color="#3b715d" class="stopColor3b715d svgShape"></stop><stop offset=".49" stop-color="#568574" class="stopColor568574 svgShape"></stop><stop offset=".5" stop-color="#779c8f" class="stopColor779c8f svgShape"></stop><stop offset=".51" stop-color="#9cb8ae" class="stopColor9cb8ae svgShape"></stop><stop offset=".52" stop-color="#c7d7d1" class="stopColorc7d7d1 svgShape"></stop><stop offset=".53" stop-color="#f5f8f7" class="stopColorf5f8f7 svgShape"></stop><stop offset=".53" stop-color="#ffffff" class="stopColorfff svgShape"></stop><stop offset=".54" stop-color="#f5f8f7" class="stopColorf5f8f7 svgShape"></stop><stop offset=".55" stop-color="#c7d7d1" class="stopColorc7d7d1 svgShape"></stop><stop offset=".56" stop-color="#9cb8ae" class="stopColor9cb8ae svgShape"></stop><stop offset=".57" stop-color="#779c8f" class="stopColor779c8f svgShape"></stop><stop offset=".58" stop-color="#568574" class="stopColor568574 svgShape"></stop><stop offset=".6" stop-color="#3b715d" class="stopColor3b715d svgShape"></stop><stop offset=".61" stop-color="#397a4d" class="stopColor25614b svgShape"></stop><stop offset=".63" stop-color="#207a44" class="stopColor14553d svgShape"></stop><stop offset=".66" stop-color="#0c6930" class="stopColor084d34 svgShape"></stop><stop offset=".69" stop-color="#006f28" class="stopColor01482e svgShape"></stop><stop offset=".78" stop-color="#028c34" class="stopColor00472d svgShape"></stop></linearGradient><linearGradient id="e" x1="388.08" x2="564.21" y1="128.66" y2="103.08" data-name="Градієнт без назви 89" gradientTransform="matrix(.77237 -.10882 .13115 .9308 -10.06 57.9)" gradientUnits="userSpaceOnUse"><stop offset=".3" stop-color="#028c34" class="stopColor00472d svgShape"></stop><stop offset=".39" stop-color="#006f28" class="stopColor01482e svgShape"></stop><stop offset=".42" stop-color="#0c6930" class="stopColor084d34 svgShape"></stop><stop offset=".44" stop-color="#207a44" class="stopColor14553d svgShape"></stop><stop offset=".46" stop-color="#397a4d" class="stopColor25614b svgShape"></stop><stop offset=".47" stop-color="#3b715d" class="stopColor3b715d svgShape"></stop><stop offset=".49" stop-color="#568574" class="stopColor568574 svgShape"></stop><stop offset=".5" stop-color="#779c8f" class="stopColor779c8f svgShape"></stop><stop offset=".51" stop-color="#9cb8ae" class="stopColor9cb8ae svgShape"></stop><stop offset=".52" stop-color="#c7d7d1" class="stopColorc7d7d1 svgShape"></stop><stop offset=".53" stop-color="#f5f8f7" class="stopColorf5f8f7 svgShape"></stop><stop offset=".53" stop-color="#ffffff" class="stopColorfff svgShape"></stop><stop offset=".54" stop-color="#f5f8f7" class="stopColorf5f8f7 svgShape"></stop><stop offset=".55" stop-color="#c7d7d1" class="stopColorc7d7d1 svgShape"></stop><stop offset=".56" stop-color="#9cb8ae" class="stopColor9cb8ae svgShape"></stop><stop offset=".57" stop-color="#779c8f" class="stopColor779c8f svgShape"></stop><stop offset=".58" stop-color="#568574" class="stopColor568574 svgShape"></stop><stop offset=".6" stop-color="#3b715d" class="stopColor3b715d svgShape"></stop><stop offset=".61" stop-color="#397a4d" class="stopColor25614b svgShape"></stop><stop offset=".63" stop-color="#207a44" class="stopColor14553d svgShape"></stop><stop offset=".66" stop-color="#0c6930" class="stopColor084d34 svgShape"></stop><stop offset=".69" stop-color="#006f28" class="stopColor01482e svgShape"></stop><stop offset=".78" stop-color="#028c34" class="stopColor00472d svgShape"></stop></linearGradient><linearGradient id="a" x1="129.41" x2="168.8" y1="116.45" y2="116.45" data-name="Градієнт без назви 890" gradientTransform="rotate(41.51 149.365 329.438)" gradientUnits="userSpaceOnUse"><stop offset="0" stop-color="#005555" class="stopColor055 svgShape"></stop><stop offset="1" stop-color="#02033c" class="stopColor02033c svgShape"></stop></linearGradient><linearGradient id="f" x2="168.8" data-name="Градієнт без назви 890" xlink:href="#a"></linearGradient><linearGradient id="g" x1="129.44" x2="168.77" y1="116.45" y2="116.45" data-name="Градієнт без назви 890" xlink:href="#a"></linearGradient><linearGradient id="h" x1="129.55" x2="168.67" y1="116.45" y2="116.45" data-name="Градієнт без назви 890" xlink:href="#a"></linearGradient><linearGradient id="i" x1="129.73" x2="168.48" y1="116.45" y2="116.45" data-name="Градієнт без назви 890" xlink:href="#a"></linearGradient><linearGradient id="j" x1="129.99" x2="168.23" y1="116.11" y2="116.11" data-name="Градієнт без назви 890" xlink:href="#a"></linearGradient><linearGradient id="k" x1="130.33" x2="167.9" y1="116.11" y2="116.11" data-name="Градієнт без назви 890" xlink:href="#a"></linearGradient><linearGradient id="l" x1="130.73" x2="167.49" y1="116.11" y2="116.11" data-name="Градієнт без назви 890" xlink:href="#a"></linearGradient><linearGradient id="m" x1="132.85" x2="165.37" y1="116.45" y2="116.45" data-name="Градієнт без назви 890" xlink:href="#a"></linearGradient><linearGradient id="n" x1="131.75" x2="166.47" y1="116.45" y2="116.45" data-name="Градієнт без назви 890" xlink:href="#a"></linearGradient><linearGradient id="o" x1="132.36" x2="165.85" y1="116.45" y2="116.45" data-name="Градієнт без назви 890" xlink:href="#a"></linearGradient><linearGradient id="p" x1="133.04" x2="165.18" y1="116.45" y2="116.45" data-name="Градієнт без назви 890" xlink:href="#a"></linearGradient><linearGradient id="q" x1="131.21" x2="167.01" y1="116.45" y2="116.45" data-name="Градієнт без назви 890" xlink:href="#a"></linearGradient><linearGradient id="r" x1="132.15" x2="166.27" y1="116.14" y2="116.14" data-name="Градієнт без назви 890" xlink:href="#a"></linearGradient><linearGradient id="s" x1="133.87" x2="164.54" y1="116.14" y2="116.14" data-name="Градієнт без назви 890" xlink:href="#a"></linearGradient><linearGradient id="t" x1="133.67" x2="164.75" y1="116.14" y2="116.14" data-name="Градієнт без назви 890" xlink:href="#a"></linearGradient><linearGradient id="u" x1="132.29" x2="166.13" y1="116.14" y2="116.14" data-name="Градієнт без назви 890" xlink:href="#a"></linearGradient><linearGradient id="v" x1="131.69" x2="166.72" y1="116.14" y2="116.14" data-name="Градієнт без назви 890" xlink:href="#a"></linearGradient><linearGradient id="w" x1="131.17" x2="167.25" y1="116.14" y2="116.14" data-name="Градієнт без назви 890" xlink:href="#a"></linearGradient><linearGradient id="x" x1="130.71" x2="167.71" y1="116.14" y2="116.14" data-name="Градієнт без назви 890" xlink:href="#a"></linearGradient><linearGradient id="y" x1="130.32" x2="168.09" y1="116.14" y2="116.14" data-name="Градієнт без назви 890" xlink:href="#a"></linearGradient><linearGradient id="z" x1="130.01" x2="168.4" y1="116.14" y2="116.14" data-name="Градієнт без назви 890" xlink:href="#a"></linearGradient><linearGradient id="A" x1="130.01" x2="168.4" y1="116.14" y2="116.14" data-name="Градієнт без назви 890" xlink:href="#a"></linearGradient><linearGradient id="B" x1="129.77" x2="168.64" y1="116.14" y2="116.14" data-name="Градієнт без назви 890" xlink:href="#a"></linearGradient><linearGradient id="C" x1="129.61" x2="168.8" y1="116.14" y2="116.14" data-name="Градієнт без назви 890" xlink:href="#a"></linearGradient><linearGradient id="D" x1="129.53" x2="168.89" y1="116.14" y2="116.14" data-name="Градієнт без назви 890" xlink:href="#a"></linearGradient><linearGradient id="E" x1="136.74" x2="161.48" y1="116.45" y2="116.45" data-name="Градієнт без назви 1055" gradientTransform="rotate(41.51 149.365 329.438)" gradientUnits="userSpaceOnUse"><stop offset="0" stop-color="#1d5f63" class="stopColor1d5f63 svgShape"></stop><stop offset="1" stop-color="#202b4a" class="stopColor202b4a svgShape"></stop></linearGradient><linearGradient id="F" x1="270.1" x2="310.99" y1="169.54" y2="169.54" data-name="Градієнт без назви 111" gradientUnits="userSpaceOnUse"><stop offset="0" stop-color="#f8eedb" class="stopColorf8eedb svgShape"></stop><stop offset=".15" stop-color="#bfc8b3" class="stopColorbfc8b3 svgShape"></stop><stop offset=".32" stop-color="#86a18b" class="stopColor86a18b svgShape"></stop><stop offset=".48" stop-color="#568069" class="stopColor568069 svgShape"></stop><stop offset=".63" stop-color="#30674f" class="stopColor30674f svgShape"></stop><stop offset=".78" stop-color="#15553c" class="stopColor15553c svgShape"></stop><stop offset=".9" stop-color="#054a30" class="stopColor054a30 svgShape"></stop><stop offset="1" stop-color="#028c34" class="stopColor00472d svgShape"></stop></linearGradient></defs><path fill="url(#b)" d="M250.48,411.21c-56.17,19.52-152.06,27.36-184.94-32.72-29.78-54.43,14.04-123.91,16.9-128.3-4.02,6.68-39.02,66.67-13.51,113.6,30.22,55.59,120.95,47.36,171.92,31.04,57.32-18.35,97.76-63.82,104.39-108.13,6.94-46.41-24.23-84.83-22.78-85.31,1.58-.53,36.24,39.16,32.59,89.11-3.73,51.12-46.52,100.54-104.57,120.71Z"></path><path fill="url(#c)" d="M232.77,61.08c-16.29-19.54-28.11-27.98-34.99-32.37-14.46-9.22-27.94-13.72-37.34-16.07,1.91,16.24,7.29,43.89,24.43,72.73,24.93,41.94,59.92,61.37,76.38,68.95-.04.11-.09.23-.13.35-12.38-4.25-30.87-12.52-49.28-28.87-23.52-20.86-34.58-43.95-40.99-57.65-11.73-25.11-16.39-48.52-18.23-65.91-.16-1.47,1.14-2.59,2.46-2.13,2.38.82,5.18,1.84,8.3,3.09,4.26,1.7,11.59,4.66,19.59,9.15,7.74,4.35,12.88,8.34,19.33,13.35,7.37,5.72,17.18,13.39,27.9,25.18,5.43,5.97,9.8,11.58,15.5,18.88,4.93,6.33,8.72,11.5,9.74,12.92,11.73,16.33,21.18,42.71,25.11,54.41-8.72-15.85-17.45-31.71-26.17-47.56"></path><path fill="url(#d)" d="M275.21,201.39c1,.58-17.34,26.42-27.65,66.37-3.68,14.27-5.08,25.49-3.88,37.92,1.33,13.75,5.44,24.68,8.87,31.94,10.41-8.75,26.99-25.04,38.04-49.61,16.03-35.7,10.84-67.6,7.27-81.94.11,0,.23-.02.34-.04,3.69,10.11,7.84,26.02,6.28,45.6-1.97,25.08-12.26,43-18.44,53.52-11.35,19.29-25.32,33.16-36.57,42.39-.95.79-2.45.45-2.84-.63-.7-1.94-1.5-4.25-2.31-6.88-1.11-3.58-2.99-9.77-4.15-17.09-1.12-7.09-1.09-12.31-1.05-18.85.02-3.2.18-15.72,2.65-29.95,1.74-10.01,2.47-14.08,3.34-16.93,1.93-6.32,4.14-10.91,5.48-13.61,8.37-16.88,23.66-42.79,24.63-42.22Z"></path><path fill="url(#e)" d="M435.64,73.12c-.86,2.04-1.92,4.44-3.18,7.09-1.71,3.62-4.69,9.84-8.86,16.39-4.04,6.34-7.53,10.35-11.91,15.37-2.13,2.45-10.56,12-21.52,21.08-3.17,2.62-8.56,6.88-13.28,10.5-2.52,1.92-4.42,3.36-4.56,3.46-8.53,6.39-35.71,13.05-48.68,16-.15-.67-.32-1.31-.5-1.96,27.48-7.28,47.12-18.93,59.27-27.55,16.1-11.41,23.59-20.75,27.56-26.29,8.35-11.64,13.13-23.25,15.89-31.5-12.1-1.25-32.93-1.44-55.94,9.02-34.58,15.74-52.74,45.88-59.61,59.06-.05-.02-.09-.05-.14-.07,4.35-10.65,12.52-26.98,27.18-41.6,17.87-17.84,35.99-23.76,46.72-27.13,19.68-6.16,37.33-6.1,50.26-4.57,1.1.13,1.77,1.54,1.29,2.68Z"></path><path fill="none" stroke="url(#a)" stroke-miterlimit="10" stroke-width=".41" d="M304.42,158.86l-2.11,9.21c-.15.67-.11,1.37.13,2.01l3.28,8.9c.98,2.67-1.42,5.33-4.22,4.7l-9.38-2.12c-.68-.15-1.39-.11-2.04.12l-9.04,3.18c-2.71.95-5.43-1.42-4.8-4.18l2.11-9.21c.15-.67.11-1.37-.13-2.01l-3.28-8.9c-.98-2.67,1.42-5.33,4.22-4.7l9.38,2.12c.68.15,1.39.11,2.04-.12l9.04-3.18c2.71-.95,5.43,1.42,4.8,4.18Z"></path><path fill="none" stroke="url(#f)" stroke-miterlimit="10" stroke-width=".41" d="M276.24,180.68l2.11-9.21c.15-.67.11-1.37-.13-2.01l-3.28-8.9c-.98-2.67,1.42-5.33,4.22-4.7l9.38,2.12c.68.15,1.39.11,2.04-.12l9.04-3.18c2.71-.95,5.43,1.42,4.8,4.18l-2.11,9.21c-.15.67-.11,1.37.13,2.01l3.28,8.9c.98,2.67-1.42,5.33-4.22,4.7l-9.38-2.12c-.68-.15-1.39-.11-2.04.12l-9.04,3.18c-2.71.95-5.43-1.42-4.8-4.18Z"></path><path fill="none" stroke="url(#g)" stroke-miterlimit="10" stroke-width=".41" d="M303.61,157.91l-1.45,9.34c-.11.68-.01,1.37.27,2l3.9,8.66c1.17,2.59-1.03,5.42-3.88,4.98l-9.5-1.48c-.69-.11-1.39-.02-2.03.26l-8.79,3.8c-2.63,1.14-5.51-1.04-5.08-3.84l1.45-9.34c.11-.68.01-1.37-.27-2l-3.9-8.66c-1.17-2.59,1.03-5.42,3.88-4.98l9.5,1.48c.69.11,1.39.02,2.03-.26l8.79-3.8c2.63-1.14,5.51,1.04,5.08,3.84Z"></path><path fill="none" stroke="url(#h)" stroke-miterlimit="10" stroke-width=".41" d="M302.73,157.03l-.79,9.42c-.06.68.09,1.37.41,1.97l4.51,8.37c1.35,2.51-.65,5.48-3.52,5.23l-9.58-.82c-.69-.06-1.39.08-2.01.4l-8.49,4.39c-2.54,1.31-5.57-.66-5.34-3.48l.79-9.42c.06-.68-.09-1.37-.41-1.97l-4.51-8.37c-1.35-2.51.65-5.48,3.52-5.23l9.58.82c.69.06,1.39-.08,2.01-.4l8.49-4.39c2.54-1.31,5.57.66,5.34,3.48Z"></path><path fill="none" stroke="url(#i)" stroke-miterlimit="10" stroke-width=".41" d="M301.79,156.2l-.12,9.45c0,.68.18,1.36.55,1.94l5.09,8.05c1.52,2.41-.26,5.51-3.13,5.46l-9.61-.16c-.7-.01-1.38.17-1.97.53l-8.16,4.96c-2.44,1.49-5.6-.28-5.57-3.11l.12-9.45c0-.68-.18-1.36-.55-1.94l-5.09-8.05c-1.52-2.41.26-5.51,3.13-5.46l9.61.16c.7.01,1.38-.17,1.97-.53l8.16-4.96c2.44-1.49,5.6.28,5.57,3.11Z"></path><path fill="none" stroke="url(#j)" stroke-miterlimit="10" stroke-width=".41" d="M301.03,155.19l.55,9.44c.04.68.28,1.34.69,1.9l5.64,7.68c1.69,2.3.14,5.52-2.74,5.67l-9.6.5c-.7.04-1.36.27-1.93.67l-7.78,5.51c-2.33,1.65-5.61.11-5.77-2.72l-.55-9.44c-.04-.68-.28-1.34-.69-1.9l-5.64-7.68c-1.69-2.3-.14-5.52,2.74-5.67l9.6-.5c.7-.04,1.36-.27,1.93-.67l7.78-5.51c2.33-1.65,5.61-.11,5.77,2.72Z"></path><path fill="none" stroke="url(#k)" stroke-miterlimit="10" stroke-width=".41" d="M299.98,154.5l1.22,9.38c.09.68.37,1.32.82,1.85l6.17,7.28c1.85,2.18.53,5.5-2.33,5.84l-9.54,1.16c-.69.08-1.34.36-1.88.8l-7.37,6.04c-2.21,1.81-5.59.49-5.95-2.32l-1.22-9.38c-.09-.68-.37-1.32-.82-1.85l-6.17-7.28c-1.85-2.18-.53-5.5,2.33-5.84l9.54-1.16c.69-.08,1.34-.36,1.88-.8l7.37-6.04c2.21-1.81,5.59-.49,5.95,2.32Z"></path><path fill="none" stroke="url(#l)" stroke-miterlimit="10" stroke-width=".41" d="M298.89,153.89l1.88,9.28c.14.67.47,1.29.95,1.79l6.67,6.84c2,2.05.92,5.45-1.91,5.99l-9.43,1.81c-.68.13-1.31.45-1.81.93l-6.92,6.53c-2.07,1.96-5.54.87-6.1-1.91l-1.88-9.28c-.14-.67-.47-1.29-.95-1.79l-6.67-6.84c-2-2.05-.92-5.45,1.91-5.99l9.43-1.81c.68-.13,1.31-.45,1.81-.93l6.92-6.53c2.07-1.96,5.54-.87,6.1,1.91Z"></path><path fill="none" stroke="url(#m)" stroke-miterlimit="10" stroke-width=".41" d="M290.21,152.09l6.09,7.35c.44.53,1.03.93,1.69,1.15l9.14,2.97c2.74.89,3.41,4.4,1.18,6.18l-7.44,5.95c-.54.43-.94,1.01-1.16,1.66l-2.98,8.98c-.89,2.69-4.46,3.33-6.28,1.13l-6.09-7.35c-.44-.53-1.03-.93-1.69-1.15l-9.14-2.97c-2.74-.89-3.41-4.4-1.18-6.18l7.44-5.95c.54-.43.94-1.01,1.16-1.66l2.98-8.98c.89-2.69,4.46-3.33,6.28-1.13Z"></path><path fill="none" stroke="url(#n)" stroke-miterlimit="10" stroke-width=".41" d="M296.37,153.14l3.18,8.94c.23.65.64,1.22,1.19,1.64l7.57,5.86c2.27,1.76,1.68,5.27-1.04,6.2l-9.07,3.08c-.66.22-1.23.63-1.66,1.16l-5.92,7.42c-1.77,2.22-5.35,1.62-6.31-1.05l-3.18-8.94c-.23-.65-.64-1.22-1.19-1.64l-7.57-5.86c-2.27-1.76-1.68-5.27,1.04-6.2l9.07-3.08c.66-.22,1.23-.63,1.66-1.16l5.92-7.42c1.77-2.22,5.35-1.62,6.31,1.05Z"></path><path fill="none" stroke="url(#o)" stroke-miterlimit="10" stroke-width=".41" d="M295.17,152.76l3.8,8.7c.28.63.73,1.17,1.31,1.56l7.97,5.33c2.39,1.6,2.05,5.15-.6,6.25l-8.83,3.7c-.64.27-1.19.71-1.58,1.28l-5.38,7.81c-1.61,2.34-5.22,1.99-6.36-.62l-3.8-8.7c-.28-.63-.73-1.17-1.31-1.56l-7.97-5.33c-2.39-1.6-2.05-5.15.6-6.25l8.83-3.7c.64-.27,1.19-.71,1.58-1.28l5.38-7.81c1.61-2.34,5.22-1.99,6.36.62Z"></path><path fill="none" stroke="url(#p)" stroke-miterlimit="10" stroke-width=".41" d="M293.95,152.47l4.41,8.42c.32.61.81,1.12,1.41,1.46l8.32,4.77c2.49,1.43,2.41,5-.15,6.28l-8.54,4.3c-.62.31-1.13.79-1.48,1.38l-4.81,8.16c-1.44,2.44-5.07,2.34-6.39-.18l-4.41-8.42c-.32-.61-.81-1.12-1.41-1.46l-8.32-4.77c-2.49-1.43-2.41-5,.15-6.28l8.54-4.3c.62-.31,1.13-.79,1.48-1.38l4.81-8.16c1.44-2.44,5.07-2.34,6.39.18Z"></path><path fill="none" stroke="url(#q)" stroke-miterlimit="10" stroke-width=".41" d="M297.53,153.6l2.54,9.13c.18.66.56,1.26,1.07,1.72l7.14,6.37c2.14,1.91,1.3,5.37-1.48,6.11l-9.27,2.45c-.67.18-1.28.54-1.74,1.05l-6.44,6.99c-1.93,2.09-5.46,1.25-6.22-1.48l-2.54-9.13c-.18-.66-.56-1.26-1.07-1.72l-7.14-6.37c-2.14-1.91-1.3-5.37,1.48-6.11l9.27-2.45c.67-.18,1.28-.54,1.74-1.05l6.44-6.99c1.93-2.09,5.46-1.25,6.22,1.48Z"></path><path fill="none" stroke="url(#r)" stroke-miterlimit="10" stroke-width=".41" d="M296.05,152.78l3.49,8.83c.25.64.69,1.2,1.25,1.6l7.77,5.6c2.33,1.68,1.86,5.21-.82,6.23l-8.96,3.39c-.65.25-1.21.67-1.62,1.22l-5.66,7.62c-1.69,2.28-5.29,1.81-6.34-.84l-3.49-8.83c-.25-.64-.69-1.2-1.25-1.6l-7.77-5.6c-2.33-1.68-1.86-5.21.82-6.23l8.96-3.39c.65-.25,1.21-.67,1.62-1.22l5.66-7.62c1.69-2.28,5.29-1.81,6.34.84Z"></path><path fill="none" stroke="url(#s)" stroke-miterlimit="10" stroke-width=".41" d="M293,152.09l5,8.1c.36.59.89,1.06,1.51,1.36l8.64,4.19c2.59,1.26,2.75,4.82.29,6.28l-8.21,4.87c-.6.35-1.07.87-1.38,1.48l-4.22,8.47c-1.26,2.54-4.89,2.68-6.38.26l-5-8.1c-.36-.59-.89-1.06-1.51-1.36l-8.64-4.19c-2.59-1.26-2.75-4.82-.29-6.28l8.21-4.87c.6-.35,1.07-.87,1.38-1.48l4.22-8.47c1.26-2.54,4.89-2.68,6.38-.26Z"></path><path fill="none" stroke="url(#t)" stroke-miterlimit="10" stroke-width=".41" d="M291.75,151.96l5.56,7.74c.4.56.96,1,1.61,1.26l8.91,3.59c2.67,1.08,3.09,4.62.74,6.25l-7.85,5.43c-.57.39-1.01.94-1.27,1.57l-3.61,8.75c-1.08,2.62-4.68,3.01-6.35.69l-5.56-7.74c-.4-.56-.96-1-1.61-1.26l-8.91-3.59c-2.67-1.08-3.09-4.62-.74-6.25l7.85-5.43c.57-.39,1.01-.94,1.27-1.57l3.61-8.75c1.08-2.62,4.68-3.01,6.35-.69Z"></path><path fill="none" stroke="url(#u)" stroke-miterlimit="10" stroke-width=".41" d="M289.24,151.97l6.59,6.91c.48.5,1.09.86,1.77,1.03l9.33,2.34c2.79.7,3.71,4.16,1.61,6.09l-7,6.45c-.51.47-.87,1.07-1.04,1.73l-2.33,9.16c-.7,2.74-4.21,3.63-6.18,1.56l-6.59-6.91c-.48-.5-1.09-.86-1.77-1.03l-9.33-2.34c-2.79-.7-3.71-4.16-1.61-6.09l7-6.45c.51-.47.87-1.07,1.04-1.73l2.33-9.16c.7-2.74,4.21-3.63,6.18-1.56Z"></path><path fill="none" stroke="url(#v)" stroke-miterlimit="10" stroke-width=".41" d="M287.99,152.1l7.07,6.45c.51.47,1.15.78,1.83.9l9.47,1.7c2.83.51,3.99,3.89,2.04,5.97l-6.52,6.92c-.47.5-.79,1.13-.91,1.8l-1.68,9.3c-.5,2.79-3.94,3.91-6.06,1.98l-7.07-6.45c-.51-.47-1.15-.78-1.83-.9l-9.47-1.7c-2.83-.51-3.99-3.89-2.04-5.97l6.52-6.92c.47-.5.79-1.13.91-1.8l1.68-9.3c.5-2.79,3.94-3.91,6.06-1.98Z"></path><path fill="none" stroke="url(#w)" stroke-miterlimit="10" stroke-width=".41" d="M286.76,152.31l7.5,5.95c.54.43,1.2.7,1.89.78l9.56,1.04c2.86.31,4.26,3.61,2.46,5.81l-6.01,7.35c-.44.53-.71,1.18-.78,1.86l-1.01,9.4c-.3,2.81-3.65,4.17-5.9,2.39l-7.5-5.95c-.54-.43-1.2-.7-1.89-.78l-9.56-1.04c-2.86-.31-4.26-3.61-2.46-5.81l6.01-7.35c.44-.53.71-1.18.78-1.86l1.01-9.4c.3-2.81,3.65-4.17,5.9-2.39Z"></path><path fill="none" stroke="url(#x)" stroke-miterlimit="10" stroke-width=".41" d="M285.54,152.61l7.9,5.42c.57.39,1.25.62,1.94.64l9.61.38c2.88.12,4.5,3.31,2.86,5.63l-5.47,7.75c-.4.56-.62,1.22-.65,1.91l-.34,9.45c-.1,2.83-3.35,4.41-5.71,2.79l-7.9-5.42c-.57-.39-1.25-.62-1.94-.64l-9.61-.38c-2.88-.12-4.5-3.31-2.86-5.63l5.47-7.75c.4-.56.62-1.22.65-1.91l.34-9.45c.1-2.83,3.35-4.41,5.71-2.79Z"></path><path fill="none" stroke="url(#y)" stroke-miterlimit="10" stroke-width=".41" d="M284.35,153l8.27,4.87c.6.35,1.29.53,1.98.51l9.61-.28c2.88-.08,4.73,3,3.26,5.42l-4.91,8.11c-.36.59-.53,1.26-.51,1.95l.33,9.45c.1,2.83-3.02,4.63-5.5,3.18l-8.27-4.87c-.6-.35-1.29-.53-1.98-.51l-9.61.28c-2.88.08-4.73-3-3.26-5.42l4.91-8.11c.36-.59.53-1.26.51-1.95l-.33-9.45c-.1-2.83,3.02-4.63,5.5-3.18Z"></path><path fill="none" stroke="url(#z)" stroke-miterlimit="10" stroke-width=".41" d="M283.19,153.46l8.59,4.29c.62.31,1.32.44,2.01.37l9.56-.93c2.86-.28,4.93,2.67,3.63,5.19l-4.32,8.43c-.31.61-.44,1.3-.37,1.98l1,9.41c.3,2.82-2.69,4.83-5.26,3.55l-8.59-4.29c-.62-.31-1.32-.44-2.01-.37l-9.56.93c-2.86.28-4.93-2.67-3.63-5.19l4.32-8.43c.31-.61.44-1.3.37-1.98l-1-9.41c-.3-2.82,2.69-4.83,5.26-3.55Z"></path><path fill="none" stroke="url(#A)" stroke-miterlimit="10" stroke-width=".41" d="M283.19,153.46l8.59,4.29c.62.31,1.32.44,2.01.37l9.56-.93c2.86-.28,4.93,2.67,3.63,5.19l-4.32,8.43c-.31.61-.44,1.3-.37,1.98l1,9.41c.3,2.82-2.69,4.83-5.26,3.55l-8.59-4.29c-.62-.31-1.32-.44-2.01-.37l-9.56.93c-2.86.28-4.93-2.67-3.63-5.19l4.32-8.43c.31-.61.44-1.3.37-1.98l-1-9.41c-.3-2.82,2.69-4.83,5.26-3.55Z"></path><path fill="none" stroke="url(#B)" stroke-miterlimit="10" stroke-width=".41" d="M282.07,154.01l8.87,3.69c.64.27,1.35.35,2.03.23l9.47-1.59c2.84-.48,5.1,2.32,3.99,4.93l-3.71,8.7c-.27.63-.35,1.32-.23,2l1.66,9.32c.5,2.79-2.34,5.01-4.99,3.9l-8.87-3.69c-.64-.27-1.35-.35-2.03-.23l-9.47,1.59c-2.84.48-5.1-2.32-3.99-4.93l3.71-8.7c.27-.63.35-1.32.23-2l-1.66-9.32c-.5-2.79,2.34-5.01,4.99-3.9Z"></path><path fill="none" stroke="url(#C)" stroke-miterlimit="10" stroke-width=".41" d="M280.99,154.62l9.11,3.07c.66.22,1.37.26,2.05.09l9.33-2.23c2.79-.67,5.25,1.97,4.33,4.65l-3.08,8.94c-.22.65-.25,1.35-.08,2.01l2.32,9.19c.69,2.75-1.97,5.15-4.7,4.23l-9.11-3.07c-.66-.22-1.37-.26-2.05-.09l-9.33,2.23c-2.79.67-5.25-1.97-4.33-4.65l3.08-8.94c.22-.65.25-1.35.08-2.01l-2.32-9.19c-.69-2.75,1.97-5.15,4.7-4.23Z"></path><path fill="none" stroke="url(#D)" stroke-miterlimit="10" stroke-width=".41" d="M279.95,155.32l9.3,2.44c.67.18,1.38.16,2.05-.05l9.15-2.87c2.74-.86,5.38,1.6,4.65,4.34l-2.44,9.13c-.18.66-.16,1.36.06,2.01l2.96,9.01c.89,2.7-1.6,5.28-4.39,4.55l-9.3-2.44c-.67-.18-1.38-.16-2.05.05l-9.15,2.87c-2.74.86-5.38-1.6-4.65-4.34l2.44-9.13c.18-.66.16-1.36-.06-2.01l-2.96-9.01c-.89-2.7,1.6-5.28,4.39-4.55Z"></path><path fill="none" stroke="url(#E)" stroke-miterlimit="10" stroke-width=".93" d="M299.73,177.1c-4.09,5.03-11.62,5.83-16.81,1.78-5.19-4.05-6.08-11.41-1.99-16.44s11.62-5.83,16.81-1.78c5.19,4.05,6.08,11.41,1.99,16.44Z"></path><path fill="none" stroke="url(#F)" stroke-miterlimit="10" stroke-width="1.26" d="M305.42,182.49c-7.23,8.04-19.76,8.76-27.97,1.61-8.21-7.15-9.01-19.47-1.78-27.52,7.23-8.04,19.76-8.76,27.97-1.61,8.21,7.15,9.01,19.47,1.78,27.52Z"></path><g><path fill="#148a3f" stroke="#06a140" stroke-miterlimit="10" stroke-width="1.18" d="M317.52 158.29c-.62.5-2.05-.8-5.53-2.61-1.71-.89-3.94-1.75-8.42-3.47-2.59-.99-5.83-2.17-9.6-3.4 3.65-1.18 6.76-1.65 8.97-1.84 3-.27 4.53-.38 6.47.29 3.4 1.17 5.21 3.84 6.03 5.05 1.4 2.06 2.91 5.31 2.08 5.98zM278.78 195.66c.08-.78 2.03-.86 5.77-2 1.84-.56 4.04-1.5 8.42-3.4 2.54-1.1 5.67-2.51 9.21-4.27-1.72 3.37-3.58 5.87-5 7.55-1.92 2.27-2.92 3.42-4.76 4.3-3.24 1.53-6.43.9-7.88.61-2.47-.49-5.87-1.74-5.76-2.8zM301.54 196.12c-.51-.61.81-2.02 2.64-5.43.9-1.68 1.77-3.87 3.5-8.27 1-2.55 2.19-5.73 3.42-9.44 1.21 3.59 1.69 6.65 1.9 8.83.28 2.95.4 4.46-.27 6.36-1.18 3.34-3.88 5.11-5.12 5.92-2.09 1.37-5.39 2.84-6.07 2.02zM316.94 180.52c-.8-.08-.88-2-2.05-5.69-.57-1.82-1.54-3.98-3.48-8.3-1.12-2.5-2.57-5.58-4.37-9.08 3.43 1.7 5.97 3.54 7.69 4.94 2.32 1.89 3.49 2.88 4.38 4.7 1.57 3.19.94 6.33.65 7.76-.49 2.43-1.75 5.77-2.83 5.66zM269.76 165.6c-1.22-3.59-1.7-6.66-1.91-8.83-.28-2.95-.4-4.46.27-6.36.19-.53.41-1 .65-1.45 2.8-2.92 6.08-5.17 9.62-6.71.43-.05.75.01.92.22.51.6-.81 2.02-2.64 5.43-.89 1.68-1.76 3.88-3.49 8.26-1 2.55-2.19 5.73-3.42 9.44zM286.28 189.66c-3.65 1.17-6.75 1.64-8.97 1.84-3 .27-4.54.38-6.47-.29-.71-.24-1.34-.54-1.92-.89h0c-2.78-2.73-4.91-5.85-6.41-9.2v-.02c-.05-.43.02-.75.23-.91.62-.51 2.05.8 5.54 2.6 1.7.89 3.94 1.76 8.41 3.46 2.59 1 5.82 2.18 9.61 3.41zM301.69 142.63c-.08.78-2.03.86-5.77 2-1.84.56-4.04 1.5-8.42 3.4-2.54 1.1-5.67 2.51-9.21 4.27 1.72-3.37 3.58-5.87 5-7.55 1.92-2.27 2.92-3.42 4.76-4.3 3.24-1.53 6.43-.9 7.88-.61 2.47.49 5.87 1.74 5.76 2.8zM272.7 181.07c-3.42-1.73-5.95-3.57-7.66-4.99-2.31-1.92-3.47-2.91-4.35-4.73-.35-.71-.57-1.42-.73-2.12v-.02c-.02-3.44.56-6.9 1.76-10.18 0 0 .02-.02.01-.03.41-.67.84-1.1 1.23-1.05.8.09.86 2 2 5.7.56 1.82 1.51 3.99 3.42 8.33 1.11 2.51 2.53 5.6 4.31 9.1z" class="color00472d svgShape colorStroke00472d svgStroke"></path></g><g><path fill="none" stroke="#06a140" stroke-miterlimit="10" stroke-width="1.18" d="M313.27,189.3c-.69.77-1.42,1.5-2.18,2.18l-.06.06c-2.08,1.88-4.37,3.42-6.8,4.62-.02,0-.05.02-.09.03-10.76,5.32-24.2,3.97-33.79-4.38-.46-.4-.91-.82-1.33-1.24h0c-2.78-2.73-4.91-5.85-6.41-9.2v-.02c-1.67-3.78-2.52-7.81-2.54-11.87v-.02c-.02-3.44.56-6.9,1.76-10.18,0,0,.02-.02.01-.03,1.27-3.46,3.2-6.75,5.83-9.67.23-.25.46-.51.7-.75,2.8-2.92,6.08-5.17,9.62-6.71,10.56-4.65,23.36-3.11,32.61,4.94,1.3,1.13,2.47,2.34,3.51,3.62.03.04.06.07.09.11.02,0,.02.02.02.02.2.24.39.48.58.72.19.26.37.49.55.75.04.05.07.11.11.16.08.12.15.24.23.36.06.1.12.18.18.28.09.16.2.31.29.49.05.07.1.15.14.23,6.88,10.95,6.05,25.41-3.03,35.51Z" class="colorStroke00472d svgStroke"></path><path fill="none" stroke="#06a140" stroke-miterlimit="10" stroke-width="2.36" d="M311.27,168.28c.72,11.3-8.02,21.01-19.5,21.68-11.48.67-21.37-7.95-22.09-19.25-.72-11.3,8-21.01,19.49-21.68,11.48-.67,21.38,7.95,22.1,19.25Z" class="colorStroke00472d svgStroke"></path></g><g><path fill="#148a3f" d="M42.3 153.72l21.38 76.78h-22.39l-4.56-16.65H13.61l-4.89 16.65H0l22.72-76.78h19.58zM15.81 206.15h18.84l-9.06-34.03-9.79 34.03zM111.38 173.8v6.36l-24.81 43.99h24.81v6.36h-47.36v-6.98l24.75-43.37h-22.33v-6.36h44.94zM118.52 230.5v-56.64c6.41 0 13.26-.51 20.53-1.52v58.16h-20.53zM128.92 151.81c6.38 0 9.56 2.48 9.56 7.43s-3.19 7.42-9.56 7.42-9.56-2.48-9.56-7.42 3.19-7.43 9.56-7.43zM233.72 230.5h-20.53v-42.58c0-3.71-1.09-5.57-3.26-5.57-5.03 0-7.54 5.34-7.54 16.03v32.12h-20.53v-41.68c0-4.24-.98-6.36-2.92-6.36-5.1 0-7.65 5.33-7.65 15.98v32.06h-20.53v-56.87c6.94 0 13.78-.47 20.53-1.41v9.79c4.84-6.49 10.8-9.73 17.89-9.73 5.92 0 10.33 3.06 13.22 9.17 4.57-6.19 10.29-9.28 17.16-9.28 9.45 0 14.18 4.78 14.18 14.34v43.99zM379.52 173.97v6.36h-9.11v40.11c0 2.51.8 3.77 2.42 3.77 1.16 0 1.86-.84 2.08-2.53l5.85.56c-1.61 5.92-6.75 8.89-15.41 8.89-10.31 0-15.47-4.39-15.47-13.16v-37.63h-6.86v-6.36h6.86v-10.01c7.09-1.95 13.93-4.76 20.53-8.44v18.45h9.11zM385.88 230.5v-76.78c6.07 0 12.92-.39 20.53-1.18v30.99c4.42-7.46 10.67-11.19 18.73-11.19 9.52 0 14.29 4.28 14.29 12.83v45.34h-20.53v-43.09c0-3.26-1.09-4.89-3.26-4.89s-4.35 2.09-6.3 6.27c-1.95 4.18-2.93 8.67-2.93 13.47v28.24h-20.53z" class="color00472d svgShape"></path></g></svg></g></svg>